<svg xmlns="http://www.w3.org/2000/svg" width="851.73" height="1058.271" viewBox="0 0 851.73 1058.271">
  <g id="trianglify-export" transform="translate(338.3 708.771) rotate(-90)" opacity="0.053">
    <path id="Path_5" data-name="Path 5" d="M826.73,576.136,729.9,477.3l25.451,106.471Z" transform="translate(-663.156 -501.084)" fill="#d9d9d9"/>
    <path id="Path_6" data-name="Path 6" d="M826.73,569.255,851.449,466.1,729.9,470.419Z" transform="translate(-663.156 -494.203)" fill="#d5d5d5"/>
    <path id="Path_7" data-name="Path 7" d="M844.077,352.994,717.9,282l4.628,75.313Z" transform="translate(-655.784 -381.097)" fill="#d9d9d9"/>
    <path id="Path_8" data-name="Path 8" d="M599.141,282,524.6,375.167l79.169-17.854Z" transform="translate(-537.025 -381.097)" fill="#e1e1e1"/>
    <path id="Path_9" data-name="Path 9" d="M603.769,477.3,524.6,495.154l104.62,88.617Z" transform="translate(-537.025 -501.084)" fill="#e0e0e0"/>
    <path id="Path_10" data-name="Path 10" d="M516.859,523.6,512,613.875l109.479-1.658Z" transform="translate(-529.284 -529.53)" fill="#e3e3e3"/>
    <path id="Path_11" data-name="Path 11" d="M981,569.255l109.788-82.215L1005.718,466.1Z" transform="translate(-817.425 -494.203)" fill="#cdcdcd"/>
    <path id="Path_12" data-name="Path 12" d="M844.077,296.348,820.476,189.8,717.9,225.355Z" transform="translate(-655.784 -324.451)" fill="#d5d5d5"/>
    <path id="Path_13" data-name="Path 13" d="M1093.3,191.227,983.9,189.8l23.6,106.548Z" transform="translate(-819.207 -324.451)" fill="#cdcdcd"/>
    <path id="Path_14" data-name="Path 14" d="M1095.877,842.135,1094.913,732,981,732.617Z" transform="translate(-817.425 -657.565)" fill="#cacaca"/>
    <path id="Path_15" data-name="Path 15" d="M981,602.615,1094.913,602l-4.126-81.6Z" transform="translate(-817.425 -527.564)" fill="#cacaca"/>
    <path id="Path_16" data-name="Path 16" d="M742.2,879.191l105.276-1.581L762.908,753.4Z" transform="translate(-670.713 -670.713)" fill="#d8d8d8"/>
    <path id="Path_17" data-name="Path 17" d="M795.9,741.235l84.568,124.21L867.279,733.6Z" transform="translate(-703.705 -658.548)" fill="#d5d5d5"/>
    <path id="Path_18" data-name="Path 18" d="M512,755.058l88.771,124.133L621.479,753.4Z" transform="translate(-529.284 -670.713)" fill="#e0e0e0"/>
    <path id="Path_19" data-name="Path 19" d="M1130.169,319.561,1130.9,193.5l-85.8,105.121Z" transform="translate(-856.807 -326.725)" fill="#c9c9c9"/>
    <path id="Path_20" data-name="Path 20" d="M1371.284,217.524,1266.433,193.5l-.733,126.061Z" transform="translate(-992.338 -326.725)" fill="#c2c2c2"/>
    <path id="Path_21" data-name="Path 21" d="M478.3-37.2,456.4,57.51,557.241,85.892Z" transform="translate(-495.125 -184.988)" fill="#e5e5e5"/>
    <path id="Path_22" data-name="Path 22" d="M557.241,236.782,456.4,208.4l26.3,121.549Z" transform="translate(-495.125 -335.879)" fill="#e5e5e5"/>
    <path id="Path_23" data-name="Path 23" d="M345.817,523.6,233.6,611.522l107.358,2.352Z" transform="translate(-358.242 -529.53)" fill="#ececec"/>
    <path id="Path_24" data-name="Path 24" d="M994.188,865.445l101.689-22.328L981,733.6Z" transform="translate(-817.425 -658.548)" fill="#cecece"/>
    <path id="Path_25" data-name="Path 25" d="M1093.3,80.455,988.6,9.5l-4.7,69.528Z" transform="translate(-819.207 -213.68)" fill="#cecece"/>
    <path id="Path_26" data-name="Path 26" d="M820.476,33.2,746.051-65.1,717.9,68.75Z" transform="translate(-655.784 -167.847)" fill="#d9d9d9"/>
    <path id="Path_27" data-name="Path 27" d="M475.26,757.7l-23.06,101.8,111.831,22.328Z" transform="translate(-492.544 -673.355)" fill="#e5e5e5"/>
    <path id="Path_28" data-name="Path 28" d="M233.6,751.6l84.3,104.157,23.06-101.805Z" transform="translate(-358.242 -669.607)" fill="#ededed"/>
    <path id="Path_29" data-name="Path 29" d="M196.3,513.9l14.384,91.663L322.9,517.64Z" transform="translate(-335.326 -523.57)" fill="#f0f0f0"/>
    <path id="Path_30" data-name="Path 30" d="M870.03-36.332,790.9-65.1l74.426,98.3Z" transform="translate(-700.633 -167.847)" fill="#d5d5d5"/>
    <path id="Path_31" data-name="Path 31" d="M1381.483,830.3l-6.748-97.525L1276.4,732Z" transform="translate(-998.912 -657.565)" fill="#bebebe"/>
    <path id="Path_32" data-name="Path 32" d="M1269.826,602l98.334.771L1265.7,520.4Z" transform="translate(-992.338 -527.564)" fill="#c2c2c2"/>
    <path id="Path_33" data-name="Path 33" d="M296.6,208.4,196.3,326.208l126.6,3.741Z" transform="translate(-335.326 -335.879)" fill="#ededed"/>
    <path id="Path_34" data-name="Path 34" d="M1368.161,589.991,1380.5,499.6l-114.8,8.021Z" transform="translate(-992.338 -514.785)" fill="#bebebe"/>
    <path id="Path_35" data-name="Path 35" d="M759.746,1168.178l78.166-12.417L742.2,1079.6Z" transform="translate(-670.713 -871.122)" fill="#d9d9d9"/>
    <path id="Path_36" data-name="Path 36" d="M742.2,1077.081l95.712,76.161,9.564-77.742Z" transform="translate(-670.713 -868.603)" fill="#d5d5d5"/>
    <path id="Path_37" data-name="Path 37" d="M1015.2,1039.928l124.4,80.519L1116.889,1017.6Z" transform="translate(-838.437 -833.031)" fill="#c8c8c8"/>
    <path id="Path_38" data-name="Path 38" d="M620.288-65.1,513.2-54.341,592.137,68.75Z" transform="translate(-530.021 -167.847)" fill="#e0e0e0"/>
    <path id="Path_39" data-name="Path 39" d="M296.6,208.4l-94.44.54L196.3,326.208Z" transform="translate(-335.326 -335.879)" fill="#f2f2f2"/>
    <path id="Path_40" data-name="Path 40" d="M446.2,1165.209l131.691,2.969L560.345,1079.6Z" transform="translate(-488.858 -871.122)" fill="#e1e1e1"/>
    <path id="Path_41" data-name="Path 41" d="M1380.5,349.815l-9.216-94.015L1265.7,357.836Z" transform="translate(-992.338 -365)" fill="#bebebe"/>
    <path id="Path_42" data-name="Path 42" d="M1100.8,43.04l-1.851-94.44L996.1-27.915Z" transform="translate(-826.703 -176.264)" fill="#cacaca"/>
    <path id="Path_43" data-name="Path 43" d="M1388.089-48.585,1262.8-51.4l1.851,94.44Z" transform="translate(-990.556 -176.264)" fill="#c1c1c1"/>
    <path id="Path_44" data-name="Path 44" d="M876.416-338.3,767.4-309.879l9.062,76.932Z" transform="translate(-686.195 0)" fill="#d7d7d7"/>
    <path id="Path_45" data-name="Path 45" d="M183.5-18.3l10.8,87.961,94.44-.54Z" transform="translate(-327.462 -196.6)" fill="#f2f2f2"/>
    <path id="Path_46" data-name="Path 46" d="M233.6,751.6l7.751,122.937,76.547-18.78Z" transform="translate(-358.242 -669.607)" fill="#f1f1f1"/>
    <path id="Path_47" data-name="Path 47" d="M448.514,1021.7,446.2,1129.636l114.145-85.609Z" transform="translate(-488.858 -835.549)" fill="#e6e6e6"/>
    <path id="Path_48" data-name="Path 48" d="M-6.3,851.785,93.963,874.537,86.211,751.6Z" transform="translate(-210.853 -669.607)" fill="#f8f8f8"/>
    <path id="Path_49" data-name="Path 49" d="M1277.364,842.135,1381.483,830.3,1276.4,732Z" transform="translate(-998.912 -657.565)" fill="#c1c1c1"/>
    <path id="Path_50" data-name="Path 50" d="M1531.4,587.717,1631.817,495.9l-88.077,1.427Z" transform="translate(-1155.578 -512.511)" fill="#b6b6b6"/>
    <path id="Path_51" data-name="Path 51" d="M1301.613,1101.585,1383.019,986.9,1278.9,998.739Z" transform="translate(-1000.448 -814.17)" fill="silver"/>
    <path id="Path_52" data-name="Path 52" d="M253.7,1040.479l74.233,89.157,2.314-107.937Z" transform="translate(-370.591 -835.549)" fill="#ededed"/>
    <path id="Path_53" data-name="Path 53" d="M1093.4,1404.24l30.966-124.364L990.4,1277.1Z" transform="translate(-823.201 -992.461)" fill="#c9c9c9"/>
    <path id="Path_54" data-name="Path 54" d="M990.4,1153.242l133.966,2.777-124.4-80.519Z" transform="translate(-823.201 -868.603)" fill="#cdcdcd"/>
    <path id="Path_55" data-name="Path 55" d="M890.854-338.3,790.9-232.947l79.13,28.768Z" transform="translate(-700.633 0)" fill="#d4d4d4"/>
    <path id="Path_56" data-name="Path 56" d="M620.288-187.668,611.226-264.6,513.2-176.909Z" transform="translate(-530.021 -45.279)" fill="#dfdfdf"/>
    <path id="Path_57" data-name="Path 57" d="M310.641-37.2,183.5-29.912,288.737,57.51Z" transform="translate(-327.462 -184.988)" fill="#ededed"/>
    <path id="Path_58" data-name="Path 58" d="M311.528-265.4,183.5-170.112,310.641-177.4Z" transform="translate(-327.462 -44.788)" fill="#ececec"/>
    <path id="Path_59" data-name="Path 59" d="M-51.18,270.5-52.8,358l96.059,6.363Z" transform="translate(-182.285 -374.031)" fill="#fefefe"/>
    <path id="Path_60" data-name="Path 60" d="M1548.716,349.815l88.077-1.427L1539.5,255.8Z" transform="translate(-1160.554 -365)" fill="#b6b6b6"/>
    <path id="Path_61" data-name="Path 61" d="M1128.15-318.633,1050.1-338.3l82.022,110.636Z" transform="translate(-859.879 0)" fill="#c9c9c9"/>
    <path id="Path_62" data-name="Path 62" d="M1641.3,605.109,1631.817,495.9,1531.4,587.717Z" transform="translate(-1155.578 -512.511)" fill="#b2b2b2"/>
    <path id="Path_63" data-name="Path 63" d="M611.226-265.091l-97.139-.309-.887,88Z" transform="translate(-530.021 -44.788)" fill="#e4e4e4"/>
    <path id="Path_64" data-name="Path 64" d="M-48.6,233.207l94.44,93.861L51.7,209.8Z" transform="translate(-184.865 -336.739)" fill="#f9f9f9"/>
    <path id="Path_65" data-name="Path 65" d="M46.638,513.9-47.3,623.186,61.022,605.563Z" transform="translate(-185.664 -523.57)" fill="#f9f9f9"/>
    <path id="Path_66" data-name="Path 66" d="M-52.8,497.4l2.121,115.649L43.259,503.763Z" transform="translate(-182.285 -513.433)" fill="#fefefe"/>
    <path id="Path_67" data-name="Path 67" d="M209.772,1070.4,182.2,1159.711l101.805-.154Z" transform="translate(-326.663 -865.47)" fill="#f1f1f1"/>
    <path id="Path_68" data-name="Path 68" d="M1098.946-227.664,1016.924-338.3,996.1-204.18Z" transform="translate(-826.703 0)" fill="#cdcdcd"/>
    <path id="Path_69" data-name="Path 69" d="M612.639-309.879,721.655-338.3,515.5-310.188Z" transform="translate(-531.434 0)" fill="#dcdcdc"/>
    <path id="Path_70" data-name="Path 70" d="M1252.5-287.3l3.972,90.969,118.117-81.483Z" transform="translate(-984.229 -31.333)" fill="#c2c2c2"/>
    <path id="Path_71" data-name="Path 71" d="M1391.038-44.1,1267.6,47.525l104.852,24.024Z" transform="translate(-993.506 -180.749)" fill="#bdbdbd"/>
    <path id="Path_72" data-name="Path 72" d="M1646.549,54l-88.462-98.1L1539.5,71.549Z" transform="translate(-1160.554 -180.749)" fill="#b5b5b5"/>
    <path id="Path_73" data-name="Path 73" d="M1645.692,878.36l6.363-99.26L1548.9,859.233Z" transform="translate(-1166.329 -686.502)" fill="#b2b2b2"/>
    <path id="Path_74" data-name="Path 74" d="M1538.148,831.525,1641.3,751.392,1531.4,734Z" transform="translate(-1155.578 -658.794)" fill="#b6b6b6"/>
    <path id="Path_75" data-name="Path 75" d="M1417.432,1387.648l-2.7-101.844-76.932-1.5Z" transform="translate(-1036.635 -996.885)" fill="#bdbdbd"/>
    <path id="Path_76" data-name="Path 76" d="M1337.8,1101.585l76.932,1.5,4.473-116.189Z" transform="translate(-1036.635 -814.17)" fill="#bdbdbd"/>
    <path id="Path_77" data-name="Path 77" d="M-39.075-6.9-48.6,100.072,51.7,76.665Z" transform="translate(-184.865 -203.604)" fill="#fdfdfd"/>
    <path id="Path_78" data-name="Path 78" d="M-47.3,769.223l15.811,82.562L61.022,751.6Z" transform="translate(-185.664 -669.607)" fill="#fcfcfc"/>
    <path id="Path_79" data-name="Path 79" d="M-30.8,1145.366l82.138,14.345L78.91,1070.4Z" transform="translate(-195.801 -865.47)" fill="#f9f9f9"/>
    <path id="Path_80" data-name="Path 80" d="M477.7,1409.909l112.487,11.954,7.057-112.564Z" transform="translate(-508.211 -1012.244)" fill="#e0e0e0"/>
    <path id="Path_81" data-name="Path 81" d="M458.347,1405.179l119.544-100.61L446.2,1301.6Z" transform="translate(-488.858 -1007.513)" fill="#e5e5e5"/>
    <path id="Path_82" data-name="Path 82" d="M787.7,1289.517l87.614,112.063-9.448-124.48Z" transform="translate(-698.667 -992.461)" fill="#d5d5d5"/>
    <path id="Path_83" data-name="Path 83" d="M1902.513,321.784,1801.556,210.3,1791.8,320.435Z" transform="translate(-1315.561 -337.046)" fill="#aaa"/>
    <path id="Path_84" data-name="Path 84" d="M1636.793,320.435l9.756-110.135L1539.5,227.846Z" transform="translate(-1160.554 -337.046)" fill="#b2b2b2"/>
    <path id="Path_85" data-name="Path 85" d="M769.4,1421.864l94.671-.5L776.457,1309.3Z" transform="translate(-687.424 -1012.244)" fill="#d8d8d8"/>
    <path id="Path_86" data-name="Path 86" d="M1537.3,1103.089l101.265-97.062L1541.773,986.9Z" transform="translate(-1159.202 -814.17)" fill="#b6b6b6"/>
    <path id="Path_87" data-name="Path 87" d="M257.5,1415.051l84.915-9.872L330.267,1301.6Z" transform="translate(-372.926 -1007.513)" fill="#ededed"/>
    <path id="Path_88" data-name="Path 88" d="M56.079-18.3-23.9-13.9,66.876,69.661Z" transform="translate(-200.04 -196.6)" fill="#f9f9f9"/>
    <path id="Path_89" data-name="Path 89" d="M-58-274.9l13.15,103.348,79.979-4.4Z" transform="translate(-179.09 -38.951)" fill="#fdfdfd"/>
    <path id="Path_90" data-name="Path 90" d="M999.848,1401.58l93.552,2.661L990.4,1277.1Z" transform="translate(-823.201 -992.461)" fill="#cecece"/>
    <path id="Path_91" data-name="Path 91" d="M1537.3,1133.562l104.774,2.776-3.509-99.838Z" transform="translate(-1159.202 -844.643)" fill="#b2b2b2"/>
    <path id="Path_92" data-name="Path 92" d="M1033.41,1702.476l75.043-99.916L1014.9,1599.9Z" transform="translate(-838.253 -1190.781)" fill="#cdcdcd"/>
    <path id="Path_93" data-name="Path 93" d="M1675.571-275.3,1569.1-270.441l7.173,84.3Z" transform="translate(-1178.739 -38.706)" fill="#b4b4b4"/>
    <path id="Path_94" data-name="Path 94" d="M1388.089-178.4l-7.173-84.3L1262.8-181.217Z" transform="translate(-990.556 -46.447)" fill="#bdbdbd"/>
    <path id="Path_95" data-name="Path 95" d="M1128.15-318.633l122.089,9.486L1050.1-338.3Z" transform="translate(-859.879 0)" fill="#c5c5c5"/>
    <path id="Path_96" data-name="Path 96" d="M-21.352,1011.4l-9.448,97.717,109.71-74.966Z" transform="translate(-195.801 -829.222)" fill="#fcfcfc"/>
    <path id="Path_97" data-name="Path 97" d="M182.2,1301.754l29.038,113.3L284.005,1301.6Z" transform="translate(-326.663 -1007.513)" fill="#f1f1f1"/>
    <path id="Path_98" data-name="Path 98" d="M-286.9,1031.414l98.759,77.7,9.448-97.717Z" transform="translate(-38.46 -829.222)" fill="#fff"/>
    <path id="Path_99" data-name="Path 99" d="M525.178-338.3,195.7-336.642l123.323,26.454Z" transform="translate(-334.957 0)" fill="#e4e4e4"/>
    <path id="Path_100" data-name="Path 100" d="M311.528-307.546,188.2-334l-4.7,121.742Z" transform="translate(-327.462 -2.642)" fill="#f1f1f1"/>
    <path id="Path_101" data-name="Path 101" d="M-191.956,497.4-279.3,609.771l89.465,3.278Z" transform="translate(-43.129 -513.433)" fill="#fff"/>
    <path id="Path_102" data-name="Path 102" d="M-194.5,797.3l-92.4,102.576,108.206-20.014Z" transform="translate(-38.46 -697.684)" fill="#fff"/>
    <path id="Path_103" data-name="Path 103" d="M-349.5,507.542l27.071,102.229L-235.085,497.4Z" transform="translate(0 -513.433)" fill="#fff"/>
    <path id="Path_104" data-name="Path 104" d="M-265.6,248.4l82.061,96.021,1.62-87.5Z" transform="translate(-51.546 -360.454)" fill="#fff"/>
    <path id="Path_105" data-name="Path 105" d="M1909.38,62.555,1836.612-22.9,1817.1,67.028Z" transform="translate(-1331.105 -193.774)" fill="#aaa"/>
    <path id="Path_106" data-name="Path 106" d="M1676.162,54l19.512-89.928L1587.7-44.1Z" transform="translate(-1190.167 -180.749)" fill="#b0b0b0"/>
    <path id="Path_107" data-name="Path 107" d="M1540,1390.043l102.075-99.067L1537.3,1288.2Z" transform="translate(-1159.202 -999.281)" fill="#b6b6b6"/>
    <path id="Path_108" data-name="Path 108" d="M1929.851,615.473,1917.626,499.4,1816.4,607.259Z" transform="translate(-1330.674 -514.662)" fill="#a6a6a6"/>
    <path id="Path_109" data-name="Path 109" d="M1801.286,605.109,1902.513,497.25,1791.8,495.9Z" transform="translate(-1315.561 -512.511)" fill="#aaa"/>
    <path id="Path_110" data-name="Path 110" d="M1257.5,1408.664l110.6-21.017L1288.466,1284.3Z" transform="translate(-987.3 -996.885)" fill="#c1c1c1"/>
    <path id="Path_111" data-name="Path 111" d="M-86,1388.11,46.462,1415.3,17.425,1302Z" transform="translate(-161.888 -1007.759)" fill="#fafafa"/>
    <path id="Path_112" data-name="Path 112" d="M462.3,1681.487l131.73,23.523-13.3-103.81Z" transform="translate(-498.749 -1191.58)" fill="#e0e0e0"/>
    <path id="Path_113" data-name="Path 113" d="M769.4,1600.4l13.3,103.81L864.071,1599.9Z" transform="translate(-687.424 -1190.781)" fill="#d8d8d8"/>
    <path id="Path_114" data-name="Path 114" d="M-330.7-1.617l25.1,93.167L-212.39-6.9Z" transform="translate(-11.55 -203.604)" fill="#fff"/>
    <path id="Path_115" data-name="Path 115" d="M-172.394-6.9-265.6,91.55l83.681,8.522Z" transform="translate(-51.546 -203.604)" fill="#fff"/>
    <path id="Path_116" data-name="Path 116" d="M1929.851,787.314,1816.4,779.1l104.813,103.694Z" transform="translate(-1330.674 -686.502)" fill="#a6a6a6"/>
    <path id="Path_117" data-name="Path 117" d="M-317.146,248.4-349.5,354.563l114.415-10.142Z" transform="translate(0 -360.454)" fill="#fff"/>
    <path id="Path_118" data-name="Path 118" d="M1918.057,314.658,1909.38,198.7l-92.28,4.473Z" transform="translate(-1331.105 -329.919)" fill="#a7a7a7"/>
    <path id="Path_119" data-name="Path 119" d="M-349.5,523.7l24.14,208.083,2.931-105.854Z" transform="translate(0 -529.591)" fill="#fff"/>
    <path id="Path_120" data-name="Path 120" d="M-283.969,788.8-286.9,894.654l92.4-102.576Z" transform="translate(-38.46 -692.462)" fill="#fff"/>
    <path id="Path_121" data-name="Path 121" d="M-64.713,1264.8-86,1365.255l103.425-86.11Z" transform="translate(-161.888 -984.904)" fill="#fefefe"/>
    <path id="Path_122" data-name="Path 122" d="M1911.075,882.794,1806.262,779.1l-6.363,99.26Z" transform="translate(-1320.537 -686.502)" fill="#aaa"/>
    <path id="Path_123" data-name="Path 123" d="M2166.727-59.3,2059.562-36.818,2056.4,40.191Z" transform="translate(-1478.124 -171.411)" fill="#a4a4a4"/>
    <path id="Path_124" data-name="Path 124" d="M39.833-334-58-311.21l93.128,98.951Z" transform="translate(-179.09 -2.642)" fill="#fafafa"/>
    <path id="Path_125" data-name="Path 125" d="M462.3,1662.441l118.426-80.287L468.239,1570.2Z" transform="translate(-498.749 -1172.534)" fill="#e5e5e5"/>
    <path id="Path_126" data-name="Path 126" d="M1257.5,1573.317l99.337,90.815L1368.1,1552.3Z" transform="translate(-987.3 -1161.537)" fill="#bebebe"/>
    <path id="Path_127" data-name="Path 127" d="M184.7,1690.625l107.049-12.456-78.976-82.37Z" transform="translate(-328.199 -1188.262)" fill="#f1f1f1"/>
    <path id="Path_128" data-name="Path 128" d="M257.5,1580.072l78.976,82.37,5.939-92.242Z" transform="translate(-372.926 -1172.534)" fill="#ededed"/>
    <path id="Path_129" data-name="Path 129" d="M803.9,1704.211l99.877-1.735L885.267,1599.9Z" transform="translate(-708.62 -1190.781)" fill="#d3d3d3"/>
    <path id="Path_130" data-name="Path 130" d="M1803.409,1136.338l107.666-95.4L1799.9,1036.5Z" transform="translate(-1320.537 -844.643)" fill="#aaa"/>
    <path id="Path_131" data-name="Path 131" d="M1934.444,1162.762,1916.667,1048,1809,1143.4Z" transform="translate(-1326.128 -851.708)" fill="#a6a6a6"/>
    <path id="Path_132" data-name="Path 132" d="M1062.9,1706.715l87-17.315-11.954-82.6Z" transform="translate(-867.743 -1195.02)" fill="#c9c9c9"/>
    <path id="Path_133" data-name="Path 133" d="M1544.3,1394.467l113.1,3.317L1646.375,1295.4Z" transform="translate(-1163.503 -1003.704)" fill="#b2b2b2"/>
    <path id="Path_134" data-name="Path 134" d="M1695.675-177.968,1687-275.3l-99.3,89.157Z" transform="translate(-1190.167 -38.706)" fill="#b0b0b0"/>
    <path id="Path_135" data-name="Path 135" d="M1250.239-309.147l106.471-4.859L1050.1-338.3Z" transform="translate(-859.879 0)" fill="#bcbcbc"/>
    <path id="Path_136" data-name="Path 136" d="M1951.093-265.7,1845.2-275.3l8.677,97.332Z" transform="translate(-1348.368 -38.706)" fill="#a8a8a8"/>
    <path id="Path_137" data-name="Path 137" d="M2186.9,230.206,2056.4,198.7l8.677,115.958Z" transform="translate(-1478.124 -329.919)" fill="#a4a4a4"/>
    <path id="Path_138" data-name="Path 138" d="M1940.467,62.555l3.162-77.009L1867.7-22.9Z" transform="translate(-1362.192 -193.774)" fill="#a6a6a6"/>
    <path id="Path_139" data-name="Path 139" d="M-317.146,99.967-342.25,6.8l-7.25,199.33Z" transform="translate(0 -212.021)" fill="#fff"/>
    <path id="Path_140" data-name="Path 140" d="M-314.118-268.5-330.7-162.337l118.31-5.283Z" transform="translate(-11.55 -42.883)" fill="#fff"/>
    <path id="Path_141" data-name="Path 141" d="M-327.8,1292.989l93.244,72.266,21.287-100.455Z" transform="translate(-13.332 -984.904)" fill="#fff"/>
    <path id="Path_142" data-name="Path 142" d="M1633.3,1644.04l24.1-88.424-113.1-3.316Z" transform="translate(-1163.503 -1161.537)" fill="#b2b2b2"/>
    <path id="Path_143" data-name="Path 143" d="M1062.9,1838.314l174.38-9.1L1149.9,1821Z" transform="translate(-867.743 -1326.619)" fill="#c5c5c5"/>
    <path id="Path_144" data-name="Path 144" d="M1269.454,1689.4l87.383,8.214L1257.5,1606.8Z" transform="translate(-987.3 -1195.02)" fill="#c2c2c2"/>
    <path id="Path_145" data-name="Path 145" d="M-349.5,523.7l8.368,313.976,15.772-105.893Z" transform="translate(0 -529.591)" fill="#fff"/>
    <path id="Path_146" data-name="Path 146" d="M-312.028,1063.3-327.8,1169.193-213.269,1141Z" transform="translate(-13.332 -861.108)" fill="#fff"/>
    <path id="Path_147" data-name="Path 147" d="M-57.811,1644.921l104.273-92.434L-86,1525.3Z" transform="translate(-161.888 -1144.949)" fill="#fdfdfd"/>
    <path id="Path_148" data-name="Path 148" d="M-12.9,1688.234l76.2,2.391L91.373,1595.8Z" transform="translate(-206.799 -1188.262)" fill="#f8f8f8"/>
    <path id="Path_149" data-name="Path 149" d="M291.749,1809.4,184.7,1821.855l238.779,11.068Z" transform="translate(-328.199 -1319.493)" fill="#e9e9e9"/>
    <path id="Path_150" data-name="Path 150" d="M-101.289-334-287.7-308.742l88.578-2.468Z" transform="translate(-37.968 -2.642)" fill="#fff"/>
    <path id="Path_151" data-name="Path 151" d="M-199.122-274.9l-88.578,2.468,101.728,100.88Z" transform="translate(-37.968 -38.951)" fill="#fff"/>
    <path id="Path_152" data-name="Path 152" d="M2190.384,592.567,2078.9,499.4l12.225,116.073Z" transform="translate(-1491.948 -514.662)" fill="#a4a4a4"/>
    <path id="Path_153" data-name="Path 153" d="M1820.029,1397.783l114.415-83.025L1809,1295.4Z" transform="translate(-1326.128 -1003.704)" fill="#a9a9a9"/>
    <path id="Path_154" data-name="Path 154" d="M1921.2,1440.309l30.812-94.709L1837.6,1428.625Z" transform="translate(-1343.699 -1034.546)" fill="#a6a6a6"/>
    <path id="Path_155" data-name="Path 155" d="M2190.384,581.754l-7.057-99.954L2078.9,488.587Z" transform="translate(-1491.948 -503.849)" fill="#a4a4a4"/>
    <path id="Path_156" data-name="Path 156" d="M2209.86,741l-99.26,22.906,88.193,73.616Z" transform="translate(-1511.424 -663.095)" fill="#a4a4a4"/>
    <path id="Path_157" data-name="Path 157" d="M1515.1,1664.131l100.263-20.091-89-91.74Z" transform="translate(-1145.563 -1161.537)" fill="#b7b7b7"/>
    <path id="Path_158" data-name="Path 158" d="M2185.03,874.016,2096.838,800.4l-8.638,95.481Z" transform="translate(-1497.661 -699.589)" fill="#a4a4a4"/>
    <path id="Path_159" data-name="Path 159" d="M1943.629-154.225l21.287-96.175L1867.7-162.67Z" transform="translate(-1362.192 -54.004)" fill="#a5a5a5"/>
    <path id="Path_160" data-name="Path 160" d="M2171.765-176.707,2085.887-250.4,2064.6-154.225Z" transform="translate(-1483.162 -54.004)" fill="#a4a4a4"/>
    <path id="Path_161" data-name="Path 161" d="M2202.422,1097.964,2185.03,991.3l-96.831,21.865Z" transform="translate(-1497.661 -816.873)" fill="#a4a4a4"/>
    <path id="Path_162" data-name="Path 162" d="M-285.3,1627.028l105.044,17.893L-208.445,1525.3Z" transform="translate(-39.443 -1144.949)" fill="#fff"/>
    <path id="Path_163" data-name="Path 163" d="M63.3,1837.891l-76.2-2.391,314.979,13.458Z" transform="translate(-206.799 -1335.528)" fill="#f0f0f0"/>
    <path id="Path_164" data-name="Path 164" d="M-327.8,1337.9l8.445,96.637,84.8-24.371Z" transform="translate(-13.332 -1029.815)" fill="#fff"/>
    <path id="Path_165" data-name="Path 165" d="M1775.1,1649.324l107.705-76.739-83.6-11.684Z" transform="translate(-1305.301 -1166.821)" fill="#ababab"/>
    <path id="Path_166" data-name="Path 166" d="M2105.977,1162.762l96.445-29.963L2088.2,1048Z" transform="translate(-1497.661 -851.708)" fill="#a4a4a4"/>
    <path id="Path_167" data-name="Path 167" d="M2356.757,458.019,2367.091,280.4,2349.7,358.065Z" transform="translate(-1658.32 -380.114)" fill="#a4a4a4"/>
    <path id="Path_168" data-name="Path 168" d="M2183.327,358.065l17.392-77.665L2078.9,364.852Z" transform="translate(-1491.948 -380.114)" fill="#a4a4a4"/>
    <path id="Path_169" data-name="Path 169" d="M2186.9,71.7l-20.168-131L2056.4,40.191Z" transform="translate(-1478.124 -171.411)" fill="#a4a4a4"/>
    <path id="Path_170" data-name="Path 170" d="M2339.3,837.522l17.392,106.664L2350.367,741Z" transform="translate(-1651.931 -663.095)" fill="#a4a4a4"/>
    <path id="Path_171" data-name="Path 171" d="M2368,458.019l6.324,203.186,4.01-380.8Z" transform="translate(-1669.564 -380.114)" fill="#a4a4a4"/>
    <path id="Path_172" data-name="Path 172" d="M2232.094,1379.384l-1.35-111.484-96.445,29.963Z" transform="translate(-1525.984 -986.809)" fill="#a4a4a4"/>
    <path id="Path_173" data-name="Path 173" d="M-305.9,1549.671l7.944,77.356L-221.1,1525.3Z" transform="translate(-26.787 -1144.949)" fill="#fff"/>
    <path id="Path_174" data-name="Path 174" d="M1775.1,1667.939l116.343,8.021-8.638-84.76Z" transform="translate(-1305.301 -1185.436)" fill="#a7a7a7"/>
    <path id="Path_175" data-name="Path 175" d="M2054.4,1440.309l128.606-13.188-97.794-81.521Z" transform="translate(-1476.896 -1034.546)" fill="#a4a4a4"/>
    <path id="Path_176" data-name="Path 176" d="M1515.1,1810.291l216.606-12.07-116.343-8.021Z" transform="translate(-1145.563 -1307.697)" fill="#afafaf"/>
    <path id="Path_177" data-name="Path 177" d="M2361.01-99.345,2339.8-337.7l1.041,107.358Z" transform="translate(-1652.238 -0.369)" fill="#a4a4a4"/>
    <path id="Path_178" data-name="Path 178" d="M2205.679-230.342,2204.637-337.7,2119.8-304.035Z" transform="translate(-1517.076 -0.369)" fill="#a4a4a4"/>
    <path id="Path_179" data-name="Path 179" d="M1951.093-304.035,2035.93-337.7,1845.2-313.637Z" transform="translate(-1348.368 -0.369)" fill="#a4a4a4"/>
    <path id="Path_180" data-name="Path 180" d="M1356.71-314.006l190.73-24.063L1050.1-338.3Z" transform="translate(-859.879 0)" fill="#b1b1b1"/>
    <path id="Path_181" data-name="Path 181" d="M2063.038,1654.949,2183.006,1557,2054.4,1570.188Z" transform="translate(-1476.896 -1164.425)" fill="#a4a4a4"/>
    <path id="Path_182" data-name="Path 182" d="M2384.4,661.2l1.35,111.484L2388.41,280.4Z" transform="translate(-1679.64 -380.114)" fill="#a4a4a4"/>
    <path id="Path_183" data-name="Path 183" d="M1515.1,1823.07l334.105-2.776-117.5-9.293Z" transform="translate(-1145.563 -1320.476)" fill="#a6a6a6"/>
    <path id="Path_184" data-name="Path 184" d="M2076.8,1654.949l117.5,9.293L2196.768,1557Z" transform="translate(-1490.658 -1164.425)" fill="#a4a4a4"/>
    <path id="Path_185" data-name="Path 185" d="M1062.9,1846.977l508.485-11.877-334.106,2.776Z" transform="translate(-867.743 -1335.282)" fill="#b5b5b5"/>
  </g>
</svg>
