<svg xmlns="http://www.w3.org/2000/svg" width="37.363" height="28.022" viewBox="0 0 37.363 28.022">
  <path id="sign-in-light" d="M13.427,65.423l12,11.968a.876.876,0,0,1,0,1.241l-12,11.968a.876.876,0,0,1-1.241,0l-.518-.518a.876.876,0,0,1,0-1.241L21.3,79.252H.876A.878.878,0,0,1,0,78.376v-.73a.878.878,0,0,1,.876-.876H21.3l-9.625-9.589a.876.876,0,0,1,0-1.241l.518-.518A.868.868,0,0,1,13.427,65.423Zm23.936,23.1V67.5a3.5,3.5,0,0,0-3.5-3.5H24.228a.878.878,0,0,0-.876.876v.584a.878.878,0,0,0,.876.876H33.86A1.171,1.171,0,0,1,35.028,67.5V88.52a1.171,1.171,0,0,1-1.168,1.168H24.228a.878.878,0,0,0-.876.876v.584a.878.878,0,0,0,.876.876H33.86A3.5,3.5,0,0,0,37.363,88.52Z" transform="translate(0 -64)" fill="#fff" opacity="0.952"/>
</svg>
