<svg xmlns="http://www.w3.org/2000/svg" width="45.09" height="33.81" viewBox="0 0 45.09 33.81">
  <path id="sign-out-light" d="M4.226,64H15.848A1.06,1.06,0,0,1,16.9,65.057v.7a1.06,1.06,0,0,1-1.057,1.057H4.226a1.413,1.413,0,0,0-1.409,1.409V93.583a1.413,1.413,0,0,0,1.409,1.409H15.848A1.06,1.06,0,0,1,16.9,96.049v.7a1.06,1.06,0,0,1-1.057,1.057H4.226A4.227,4.227,0,0,1,0,93.583V68.226A4.227,4.227,0,0,1,4.226,64Zm24.565,1.717-.625.625a1.057,1.057,0,0,0,0,1.5L39.788,79.408H15.144a1.06,1.06,0,0,0-1.057,1.057v.88A1.06,1.06,0,0,0,15.144,82.4H39.788L28.175,93.971a1.057,1.057,0,0,0,0,1.5l.625.625a1.057,1.057,0,0,0,1.5,0L44.78,81.653a1.058,1.058,0,0,0,0-1.5L30.288,65.717A1.058,1.058,0,0,0,28.791,65.717Z" transform="translate(0 -64)" fill="#fff" opacity="0.946"/>
</svg>
