<svg xmlns="http://www.w3.org/2000/svg" width="31.099" height="35.399" viewBox="0 0 31.099 35.399">
  <path id="user-light" d="M21.07,19.35c-1.928,0-2.855,1.075-6.02,1.075S10.965,19.35,9.03,19.35A9.032,9.032,0,0,0,0,28.379v2.795A3.226,3.226,0,0,0,3.225,34.4h23.65A3.226,3.226,0,0,0,30.1,31.174V28.379A9.032,9.032,0,0,0,21.07,19.35Zm6.88,11.825a1.078,1.078,0,0,1-1.075,1.075H3.225A1.078,1.078,0,0,1,2.15,31.174V28.379A6.885,6.885,0,0,1,9.03,21.5c1.317,0,2.627,1.075,6.02,1.075s4.7-1.075,6.02-1.075a6.884,6.884,0,0,1,6.88,6.88ZM15.05,17.2a8.6,8.6,0,1,0-8.6-8.6A8.6,8.6,0,0,0,15.05,17.2Zm0-15.05A6.45,6.45,0,1,1,8.6,8.6,6.46,6.46,0,0,1,15.05,2.15Z" transform="translate(0.5 0.5)" fill="#141414" stroke="#141414" stroke-width="1" opacity="0.954"/>
</svg>
